<svg width="204" height="177" viewBox="0 0 204 177" fill="none" xmlns="http://www.w3.org/2000/svg">
<rect width="204" height="177" fill="#F1D4C8"/>
<rect x="45" y="50" width="118" height="40" rx="4" fill="#BF907E"/>
<rect x="39" y="45" width="125" height="44" rx="5" stroke="black" stroke-width="2"/>
<rect x="73" y="82" width="89" height="36" rx="5" fill="white" stroke="black" stroke-width="2"/>
<rect x="79" y="86" width="82" height="31" rx="4" fill="#F1D4C8"/>
<path d="M63.501 55.3L71.313 77H68.957L67.035 71.575H56.588L54.666 77H52.31L60.122 55.3H63.501ZM57.363 69.467H66.26L62.044 57.594H61.61L57.363 69.467ZM82.1882 74.706C84.8852 74.706 87.4582 73.59 87.4582 70.676C87.4582 67.762 84.8852 66.646 82.1882 66.646H76.5772V74.706H82.1882ZM82.1262 64.321C84.3582 64.321 86.4042 63.36 86.4042 60.973C86.4042 58.586 84.3582 57.594 82.1262 57.594H76.5772V64.321H82.1262ZM90.0002 71.234C90.0002 75.512 85.7532 77 82.0332 77H74.0352V55.3H82.0022C85.2882 55.3 88.7912 56.85 88.7912 60.539C88.7912 63.36 86.6212 64.91 84.4822 65.189V65.623C87.1792 65.995 90.0002 67.824 90.0002 71.234ZM101.881 75.078C107.182 75.078 109.29 70.273 109.29 66.15C109.29 62.027 107.182 57.222 101.881 57.222C96.5492 57.222 94.4722 62.027 94.4722 66.15C94.4722 70.273 96.5492 75.078 101.881 75.078ZM101.881 54.928C109.042 54.928 111.832 60.973 111.832 66.181C111.832 71.327 109.042 77.372 101.881 77.372C94.7202 77.372 91.9302 71.327 91.9302 66.181C91.9302 60.973 94.7202 54.928 101.881 54.928ZM129.553 68.072V55.3H132.095V68.103C132.095 71.978 129.956 77.372 123.694 77.372C117.432 77.372 115.293 71.916 115.293 68.103V55.3H117.835V68.072C117.835 71.296 119.478 75.078 123.694 75.078C127.91 75.078 129.553 71.296 129.553 68.072ZM150.589 55.3V57.594H143.924V77H141.382V57.594H134.717V55.3H150.589Z" fill="black"/>
<path d="M116.461 102.072V89.3H119.003V102.103C119.003 105.978 116.864 111.372 110.602 111.372C104.34 111.372 102.201 105.916 102.201 102.103V89.3H104.743V102.072C104.743 105.296 106.386 109.078 110.602 109.078C114.818 109.078 116.461 105.296 116.461 102.072ZM138.182 104.893C138.182 107.962 135.95 111.372 130.184 111.372C124.449 111.372 122.186 107.776 122.186 104.707H124.728C124.728 106.691 126.278 109.078 130.215 109.078C134.121 109.078 135.64 106.877 135.64 104.893C135.64 102.134 132.137 101.483 129.657 101.018C126.681 100.46 122.527 99.623 122.527 95.097C122.527 92.214 124.697 88.928 130.277 88.928C135.857 88.928 138.058 92.214 138.058 95.097C138.058 95.19 138.058 95.252 138.058 95.345H135.516C135.516 95.252 135.516 95.19 135.516 95.097C135.516 93.299 134.059 91.222 130.277 91.222C126.526 91.222 125.069 93.299 125.069 95.097C125.069 97.732 127.58 98.321 130.029 98.724C133.749 99.375 138.182 100.367 138.182 104.893Z" fill="black"/>
<circle cx="68" cy="119" r="22.5" fill="white" stroke="black"/>
<path d="M89.5 121C89.5 131.77 80.2696 140.5 69.5 140.5C58.7304 140.5 50 131.27 50 120.5C50 109.73 58.7304 101 69.5 101C80.2696 101 89.5 110.23 89.5 121Z" fill="#BF907E"/>
<line x1="60" y1="106" x2="60" y2="117" stroke="black" stroke-width="2"/>
<line x1="76" y1="106" x2="76" y2="117" stroke="black" stroke-width="2"/>
<path d="M56.0662 123.559C64.7952 135.048 75.6384 128.841 79.9689 124.302" stroke="black" stroke-width="2"/>
</svg>
